# AST/ASF file generated using VICON BodyLanguage
# -----------------------------------------------
:version 1.10
:name VICON
:units
  mass 1.0
  length 0.45
  angle deg
:documentation
   .ast/.asf automatically generated from VICON data using
   VICON BodyBuilder and BodyLanguage model FoxedUp or BRILLIANT.MOD
:root
   order TX TY TZ RX RY RZ
   axis XYZ
   position 0 0 0  
   orientation 0 0 0 
:bonedata
  begin
     id 1 
     name lhipjoint
     direction 0.584852 -0.759097 0.285867 
     length 2.43633 
     axis 0 0 0  XYZ
  end
  begin
     id 2 
     name lfemur
     direction 0.34202 -0.939693 0  
     length 7.14704  
     axis 0 0 20  XYZ
    dof rx ry rz
    limits (-160.0 20.0)
           (-70.0 70.0)
           (-60.0 70.0)
  end
  begin
     id 3 
     name ltibia
     direction 0.342022 -0.939692 0   
     length 7.68483   
     axis 0 0 20   XYZ
    dof rx
    limits (-10.0 170.0)
  end
  begin
     id 4 
     name lfoot
     direction 0.0999605 -0.274639 0.956337   
     length 2.40452   
     axis -90 7.62852e-016 20   XYZ
    dof rx rz
    limits (-45.0 90.0)
           (-70.0 20.0)
  end
  begin
     id 5 
     name ltoes
     direction 1.53468e-011 -4.21881e-011 1   
     length 1.19837   
     axis -90 7.62852e-016 20   XYZ
    dof rx
    limits (-90.0 20.0)
  end
  begin
     id 6 
     name rhipjoint
     direction -0.569886 -0.769002 0.289597   
     length 2.40495  
     axis 0 0 0  XYZ 
  end
  begin
     id 7 
     name rfemur
     direction -0.34202 -0.939693 0   
     length 7.45086   
     axis 0 0 -20   XYZ
    dof rx ry rz
    limits (-160.0 20.0)
           (-70.0 70.0)
           (-70.0 60.0)
  end
  begin
     id 8 
     name rtibia
     direction -0.34202 -0.939693 0   
     length 7.76831   
     axis 0 0 -20   XYZ
    dof rx
    limits (-10.0 170.0)
 end
 begin
     id 9 
     name rfoot
     direction -0.0798572 -0.219406 0.97236   
     length 2.35911  
     axis -90 -7.62852e-016 -20   XYZ
    dof rx rz
    limits (-45.0 90.0)
           (-20.0 70.0)
  end
  begin
     id 10 
     name rtoes
     direction -1.53469e-011 -4.21728e-011 1   
     length 1.18261   
     axis -90 -7.62852e-016 -20   XYZ
    dof rx
    limits (-90.0 20.0)
  end
  begin
     id 11 
     name lowerback
     direction 0.0242088 0.999437 0.0232389   
     length 2.1561   
     axis 0 0 0   XYZ
    dof rx ry rz
    limits (-20.0 45.0)
           (-30.0 30.0)
           (-30.0 30.0)
  end
  begin
     id 12 
     name upperback
     direction -0.0356893 0.999013 -0.0264323   
     length 2.14431   
     axis 0 0 0   XYZ
    dof rx ry rz
    limits (-20.0 45.0)
           (-30.0 30.0)
           (-30.0 30.0)
  end
  begin
     id 13 
     name thorax
     direction -0.0472163 0.998194 -0.0371284   
     length 2.16169   
     axis 0 0 0   XYZ
    dof rx ry rz
    limits (-20.0 45.0)
           (-30.0 30.0)
           (-30.0 30.0)
  end
  begin
     id 14 
     name lowerneck
     direction 0.00863244 0.999921 0.00911972   
     length 1.58651   
     axis 0 0 0   XYZ
    dof rx ry rz
    limits (-20.0 45.0)
           (-30.0 30.0)
           (-30.0 30.0)
  end
  begin
     id 15 
     name upperneck
     direction 0.149523 0.979068 -0.138086   
     length 1.57486   
     axis 0 0 0   XYZ
    dof rx ry rz
    limits (-20.0 45.0)
           (-30.0 30.0)
           (-30.0 30.0)
  end
  begin
     id 16
     name head
     direction 0.0445219 0.997708 -0.0509576  
     length 1.6019  
     axis 0 0 0   XYZ
    dof rx ry rz
    limits (-20.0 45.0)
           (-30.0 30.0)
           (-30.0 30.0)
  end
  begin
     id 17 
     name lclavicle
     direction 0.911271 0.381667 -0.154644  
     length 3.80848  
     axis 0 0 0   XYZ
    dof ry rz
    limits (-20.0 10.0)
           (0.0 20.0)
  end
  begin
     id 18 
     name lhumerus
     direction 1 -4.49003e-011 2.1308e-027   
     length 5.19069   
     axis 180 -30 -90   XYZ
    dof rx ry rz
    limits (-60.0 90.0)
           (-90.0 90.0)
           (-90.0 90.0)
  end
  begin
     id 19
     name lradius
     direction 1 -4.48914e-011 4.01554e-027   
     length 3.30016   
     axis 180 -30 -90   XYZ
    dof rx
    limits (-10.0 170.0)
  end
  begin
     id 20
     name lwrist
     direction 1 -4.49003e-011 1.1934e-026   
     length 1.65008   
     axis -8.46377e-015 90 90   XYZ
    dof ry
    limits (-180.0 0.0)
 end
  begin
     id 21 
     name lhand
     direction 1 -4.49034e-011 2.38659e-026   
     length 0.707698   
     axis -1.52313e-014 90 90   XYZ
    dof rx rz
    limits (-90.0 90.0)
           (-45.0 45.0)
  end
  begin
     id 22 
     name lfingers
     direction 1 -4.48691e-011 4.77775e-026   
     length 0.570564   
     axis -3.04623e-014 90 90   XYZ
    dof rx
    limits (0.0 90.0)
  end
  begin
     id 23
     name lthumb
     direction 0.707107 -6.34832e-011 0.707107   
     length 0.819219   
     axis -90 45 -1.62303e-014   XYZ
    dof rx rz
    limits (-45.0 45.0)
           (-45.0 45.0)
  end
  begin
     id 24 
     name rclavicle
     direction -0.815579 0.573708 -0.0754329   
     length 3.54371  
     axis 0 0 0   XYZ 
    dof ry rz
    limits (-10.0 20.0)
           (-20.0 0.0)
  end
  begin
     id 25 
     name rhumerus
     direction -1 -4.48956e-011 3.05351e-028  
     length 5.23924   
     axis 180 30 90   XYZ
    dof rx ry rz
    limits (-90.0 60.0)
           (-90.0 90.0)
           (-90.0 90.0)
  end
  begin
     id 26 
     name rradius
     direction -1 -4.49013e-011 3.53849e-027   
     length 3.32953   
     axis 180 30 90   XYZ
    dof rx
    limits (-10.0 170.0)
  end
  begin
     id 27 
     name rwrist
     direction -1 -4.48901e-011 1.19374e-026   
     length 1.66477   
     axis -8.46377e-015 -90 -90   XYZ
    dof ry
    limits (-180.0 0.0)
  end
  begin
     id 28
     name rhand
     direction -1 -4.48877e-011 2.38764e-026   
     length 0.607414   
     axis -1.52313e-014 -90 -90   XYZ
    dof rx rz
    limits (-90.0 90.0)
           (-45.0 45.0)
  end
  begin
     id 29
     name rfingers
     direction -1 -4.48882e-011 4.77521e-026   
     length 0.489712   
     axis -3.04623e-014 -90 -90   XYZ
    dof rx
    limits (0.0 90.0)
  end
  begin
     id 30
     name rthumb
     direction -0.707107 -6.34974e-011 0.707107   
     length 0.703132   
     axis -90 -45 1.62303e-014   XYZ
    dof rx rz
    limits (-45.0 45.0)
           (-45.0 45.0)
  end
:hierarchy
  begin
    root lhipjoint rhipjoint lowerback
    lhipjoint lfemur
    lfemur ltibia
    ltibia lfoot
    lfoot ltoes
    rhipjoint rfemur
    rfemur rtibia
    rtibia rfoot
    rfoot rtoes
    lowerback upperback
    upperback thorax
    thorax lowerneck lclavicle rclavicle
    lowerneck upperneck
    upperneck head
    lclavicle lhumerus
    lhumerus lradius
    lradius lwrist
    lwrist lhand lthumb
    lhand lfingers
    rclavicle rhumerus
    rhumerus rradius
    rradius rwrist
    rwrist rhand rthumb
    rhand rfingers
  end

#!OML:ASF E:\VariousWalksJay\Project 1\Capture day 1\Session 1\Actor2.ASF
:FULLY-SPECIFIED
:DEGREES
313
root 17.6295 16.6036 -7.33672 31.7548 -48.3091 -14.4012
lowerback 19.6141 -2.48429 8.48325
upperback 13.2353 -2.55056 -1.94145
thorax 3.12815 -0.887247 -6.47333
lowerneck 4.52576 3.61139 3.16602
upperneck -15.9738 5.12919 -0.529923
head -5.46322 2.32551 -0.989229
rclavicle 9.54166e-015 2.06736e-014
rhumerus -45.0378 23.8533 -88.9151
rradius 62.8297
rwrist 14.7022
rhand -44.9727 14.9153
rfingers 7.12502
rthumb -17.7574 -14.2939
lclavicle 9.54166e-015 2.06736e-014
lhumerus 9.82049 -53.1341 71.9575
lradius 84.8568
lwrist 29.8882
lhand -37.0629 -1.00629
lfingers 7.12502
lthumb -10.1354 28.7296
rfemur -14.1747 2.38608 26.8034
rtibia 34.4636
rfoot -28.9454 -11.2354
rtoes -26.7211
lfemur -57.1297 12.0151 -17.4409
ltibia 24.9948
lfoot 1.40392 8.30851
ltoes -11.0112
314
root 17.5957 16.6146 -7.24648 31.9706 -48.1906 -14.4365
lowerback 19.6025 -2.48747 8.57526
upperback 13.2467 -2.54247 -1.91241
thorax 3.14952 -0.877035 -6.4963
lowerneck 4.54349 3.57795 3.16706
upperneck -16.1449 5.08501 -0.532929
head -5.52031 2.3 -0.990837
rclavicle -1.27222e-014 -3.73715e-014
rhumerus -44.9258 23.9798 -88.8981
rradius 63.0956
rwrist 14.5752
rhand -44.9792 14.7833
rfingers 7.12502
rthumb -17.7637 -14.4253
lclavicle -1.27222e-014 -3.73715e-014
lhumerus 10.6108 -53.0982 71.2645
lradius 84.7763
lwrist 30.153
lhand -37.0282 -0.858205
lfingers 7.12502
lthumb -10.1018 28.8793
rfemur -13.7987 2.24782 26.6168
rtibia 33.8413
rfoot -28.4261 -10.7312
rtoes -27.2567
lfemur -57.5266 12.021 -17.6649
ltibia 25.7939
lfoot 1.34621 7.95569
ltoes -10.1774
315
root 17.5624 16.624 -7.15637 32.1807 -48.0755 -14.4879
lowerback 19.6056 -2.49072 8.66252
upperback 13.2656 -2.53493 -1.87703
thorax 3.17216 -0.867713 -6.50931
lowerneck 4.55917 3.55273 3.16338
upperneck -16.2999 5.05239 -0.529997
head -5.57218 2.2804 -0.990167
rclavicle 3.65764e-014 -8.26944e-014
rhumerus -44.7871 24.1328 -88.8699
rradius 63.401
rwrist 14.4487
rhand -44.9909 14.6326
rfingers 7.12502
rthumb -17.7749 -14.5751
lclavicle 3.65764e-014 -8.26944e-014
lhumerus 11.4841 -53.024 70.4984
lradius 84.6964
lwrist 30.4407
lhand -36.9756 -0.694558
lfingers 7.12502
lthumb -10.0511 29.0454
rfemur -13.4562 2.12243 26.4398
rtibia 33.3155
rfoot -27.9009 -10.2306
rtoes -27.7793
lfemur -57.9118 12.0153 -17.859
ltibia 26.615
lfoot 1.20605 7.65741
ltoes -9.35961
316
root 17.5295 16.6319 -7.06618 32.3745 -47.9662 -14.5492
lowerback 19.629 -2.4944 8.74169
upperback 13.294 -2.52867 -1.83949
thorax 3.19535 -0.859693 -6.51483
lowerneck 4.56995 3.53456 3.16486
upperneck -16.4376 5.03001 -0.524915
head -5.61759 2.26575 -0.989858
rclavicle 3.81667e-014 1.43125e-014
rhumerus -44.6204 24.308 -88.8333
rradius 63.7527
rwrist 14.3343
rhand -45.0021 14.4643
rfingers 7.12502
rthumb -17.7857 -14.7423
lclavicle 3.81667e-014 1.43125e-014
lhumerus 12.4399 -52.9078 69.6574
lradius 84.6138
lwrist 30.735
lhand -36.9066 -0.507645
lfingers 7.12502
lthumb -9.9845 29.2355
rfemur -13.1413 1.99652 26.2694
rtibia 32.8883
rfoot -27.3732 -9.72423
rtoes -28.2412
lfemur -58.2726 12.0011 -18.0312
ltibia 27.4505
lfoot 0.992526 7.41498
ltoes -8.5862
317
root 17.497 16.6386 -6.97567 32.5474 -47.8657 -14.6119
lowerback 19.6698 -2.4934 8.81544
upperback 13.3302 -2.51676 -1.80408
thorax 3.21978 -0.849099 -6.52035
lowerneck 4.58665 3.51535 3.18438
upperneck -16.565 5.00819 -0.520449
head -5.66041 2.25051 -0.992669
rclavicle 3.18055e-015 -8.11041e-014
rhumerus -44.4266 24.482 -88.7885
rradius 64.1486
rwrist 14.2503
rhand -45.0083 14.3095
rfingers 7.12502
rthumb -17.7917 -14.8966
lclavicle 3.18055e-015 -8.11041e-014
lhumerus 13.4793 -52.7666 68.743
lradius 84.5316
lwrist 31.033
lhand -36.8366 -0.304575
lfingers 7.12502
lthumb -9.91699 29.4418
rfemur -12.8582 1.85757 26.0998
rtibia 32.5631
rfoot -26.8364 -9.22275
rtoes -28.6667
lfemur -58.6045 11.981 -18.1931
ltibia 28.2908
lfoot 0.714915 7.22497
ltoes -7.83844
318
root 17.4649 16.6443 -6.88501 32.6957 -47.7798 -14.6825
lowerback 19.7412 -2.48927 8.87322
upperback 13.3748 -2.50175 -1.7671
thorax 3.239 -0.838476 -6.51502
lowerneck 4.61734 3.49835 3.20485
upperneck -16.6908 4.99017 -0.51627
head -5.70506 2.23712 -0.996221
rclavicle 4.6118e-014 -7.15625e-014
rhumerus -44.2123 24.6784 -88.73
rradius 64.6092
rwrist 14.1722
rhand -44.9865 14.1363
rfingers 7.12502
rthumb -17.7706 -15.0717
lclavicle 4.6118e-014 -7.15625e-014
lhumerus 14.5907 -52.5772 67.7673
lradius 84.4471
lwrist 31.3355
lhand -36.7887 -0.11295
lfingers 7.12502
lthumb -9.87082 29.6357
rfemur -12.6027 1.70314 25.9358
rtibia 32.3463
rfoot -26.2847 -8.74181
rtoes -29.0806
lfemur -58.8931 11.9706 -18.348
ltibia 29.1281
lfoot 0.377428 7.07611
ltoes -7.11968
319
root 17.4331 16.6494 -6.79342 32.8084 -47.724 -14.7478
lowerback 19.8412 -2.47477 8.91521
upperback 13.4305 -2.47492 -1.73876
thorax 3.25847 -0.822717 -6.51187
lowerneck 4.66079 3.47664 3.23556
upperneck -16.8219 4.96735 -0.512423
head -5.75346 2.22058 -1.00161
rclavicle 2.22639e-014 -3.65764e-014
rhumerus -43.9653 24.8685 -88.6602
rradius 65.1291
rwrist 14.1082
rhand -44.9316 13.9754
rfingers 7.12502
rthumb -17.7179 -15.2374
lclavicle 2.22639e-014 -3.65764e-014
lhumerus 15.779 -52.3499 66.7289
lradius 84.3637
lwrist 31.6443
lhand -36.7532 0.0800941
lfingers 7.12502
lthumb -9.83656 29.8303
rfemur -12.3771 1.53353 25.756
rtibia 32.2476
rfoot -25.7266 -8.26435
rtoes -29.4292
lfemur -59.1297 11.9759 -18.5149
ltibia 29.9571
lfoot -0.0222507 6.96617
ltoes -6.42935
320
root 17.4016 16.6538 -6.70188 32.8919 -47.6959 -14.8008
lowerback 19.9622 -2.44812 8.93195
upperback 13.4943 -2.43567 -1.71639
thorax 3.27892 -0.802191 -6.50285
lowerneck 4.71619 3.4488 3.27236
upperneck -16.96 4.93725 -0.509297
head -5.80618 2.19991 -1.00813
rclavicle -2.22639e-014 5.96354e-014
rhumerus -43.6894 25.0488 -88.5807
rradius 65.7095
rwrist 14.0696
rhand -44.8642 13.8053
rfingers 7.12502
rthumb -17.6529 -15.4133
lclavicle -2.22639e-014 5.96354e-014
lhumerus 17.0394 -52.0773 65.6312
lradius 84.2845
lwrist 31.9681
lhand -36.7203 0.273095
lfingers 7.12502
lthumb -9.80478 30.0248
rfemur -12.2036 1.34999 25.5637
rtibia 32.2792
rfoot -25.1503 -7.82036
rtoes -29.7631
lfemur -59.3348 12.0276 -18.7257
ltibia 30.7744
lfoot -0.475352 6.84817
ltoes -5.77172
321
root 17.3708 16.6574 -6.61066 32.9609 -47.6924 -14.8523
lowerback 20.1019 -2.40899 8.92892
upperback 13.5631 -2.38271 -1.69626
thorax 3.29799 -0.776247 -6.48726
lowerneck 4.7794 3.4148 3.31612
upperneck -17.1011 4.8987 -0.513258
head -5.86102 2.17506 -1.01767
rclavicle -3.18055e-014 2.22639e-014
rhumerus -43.3835 25.2225 -88.4877
rradius 66.3477
rwrist 14.047
rhand -44.7925 13.612
rfingers 7.12502
rthumb -17.584 -15.6128
lclavicle -3.18055e-014 2.22639e-014
lhumerus 18.3485 -51.7538 64.5002
lradius 84.2108
lwrist 32.3054
lhand -36.695 0.462499
lfingers 7.12502
lthumb -9.78044 30.2154
rfemur -12.0984 1.17043 25.3668
rtibia 32.4562
rfoot -24.5579 -7.41897
rtoes -30.0714
lfemur -59.5157 12.1297 -18.9727
ltibia 31.5761
lfoot -0.976954 6.7161
ltoes -5.16191
322
root 17.3405 16.6602 -6.51998 33.0195 -47.7203 -14.9002
lowerback 20.2605 -2.3572 8.89336
upperback 13.633 -2.31741 -1.67998
thorax 3.31097 -0.746627 -6.4593
lowerneck 4.83471 3.38004 3.36847
upperneck -17.2296 4.85817 -0.52586
head -5.91024 2.14962 -1.0308
rclavicle -6.36111e-015 1.90833e-014
rhumerus -43.0485 25.3997 -88.3867
rradius 67.0408
rwrist 14.0314
rhand -44.7235 13.4041
rfingers 7.12502
rthumb -17.5175 -15.8267
lclavicle -6.36111e-015 1.90833e-014
lhumerus 19.6892 -51.3652 63.3429
lradius 84.1456
lwrist 32.6662
lhand -36.6646 0.658446
lfingers 7.12502
lthumb -9.75103 30.4127
rfemur -12.0761 1.01115 25.1596
rtibia 32.7945
rfoot -23.9486 -7.05639
rtoes -30.3226
lfemur -59.6793 12.2931 -19.2644
ltibia 32.3586
lfoot -1.52276 6.5593
ltoes -4.63393
323
root 17.3108 16.6623 -6.43005 33.0741 -47.7779 -14.9411
lowerback 20.4226 -2.29336 8.82301
upperback 13.7071 -2.24264 -1.66577
thorax 3.32835 -0.71442 -6.41568
lowerneck 4.8723 3.348 3.42278
upperneck -17.3425 4.81908 -0.548135
head -5.95118 2.12585 -1.04673
rclavicle 6.04305e-014 -5.40694e-014
rhumerus -42.6702 25.5819 -88.2735
rradius 67.7866
rwrist 14.0006
rhand -44.6489 13.1756
rfingers 7.12502
rthumb -17.4458 -16.0616
lclavicle 6.04305e-014 -5.40694e-014
lhumerus 21.0536 -50.9076 62.1681
lradius 84.0889
lwrist 33.055
lhand -36.6286 0.873629
lfingers 7.12502
lthumb -9.71635 30.6295
rfemur -12.1568 0.869945 24.9422
rtibia 33.3064
rfoot -23.3058 -6.76128
rtoes -30.6069
lfemur -59.8358 12.5172 -19.601
ltibia 33.1195
lfoot -2.11037 6.3706
ltoes -4.18513
